<svg width="8" height="12" viewBox="0 0 8 12" fill="none" xmlns="http://www.w3.org/2000/svg">
<path d="M7.95506 7.293C7.87406 7.114 7.69606 7 7.50006 7H5.50006V0.5C5.50006 0.224 5.27606 0 5.00006 0H3.00006C2.72406 0 2.50006 0.224 2.50006 0.5V7H0.500061C0.304061 7 0.126061 7.115 0.0450613 7.293C-0.0369387 7.472 -0.00493869 7.681 0.124061 7.829L3.62406 11.829C3.71906 11.938 3.85606 12 4.00006 12C4.14406 12 4.28106 11.937 4.37606 11.829L7.87606 7.829C8.00606 7.682 8.03606 7.472 7.95506 7.293Z" fill="#B2B2B2"/>
</svg>
