<svg width="18" height="18" viewBox="0 0 18 18" fill="none" xmlns="http://www.w3.org/2000/svg">
<g clip-path="url(#clip0)">
<path d="M16.4467 15.1823L15.1582 13.0358C14.5642 12.045 14.2499 10.911 14.2499 9.75526V7.875C14.2499 4.98077 11.8942 2.62502 8.99996 2.62502C6.10572 2.62502 3.74997 4.98077 3.74997 7.875V9.75526C3.74997 10.911 3.43571 12.045 2.84171 13.0358L1.5532 15.1823C1.48345 15.2978 1.48194 15.4425 1.54796 15.5595C1.61472 15.6773 1.73995 15.75 1.87495 15.75H16.1249C16.2599 15.75 16.3852 15.6773 16.4519 15.5595C16.5179 15.4425 16.5165 15.2978 16.4467 15.1823ZM2.53722 15L3.48447 13.4213C4.14896 12.3143 4.49996 11.0468 4.49996 9.75526V7.875C4.49996 5.39325 6.51821 3.375 8.99996 3.375C11.4817 3.375 13.5 5.39325 13.5 7.875V9.75526C13.5 11.0468 13.851 12.3143 14.5147 13.4213L15.4627 15H2.53722Z" fill="#4A4A4A"/>
<path d="M9.00001 0C8.17275 0 7.5 0.67275 7.5 1.50001V3.00002C7.5 3.20699 7.66801 3.375 7.87501 3.375C8.08201 3.375 8.25003 3.20699 8.25003 2.99999V1.50001C8.25003 1.08601 8.58601 0.750023 9.00001 0.750023C9.41402 0.750023 9.75 1.08601 9.75 1.50001V3.00002C9.75 3.20699 9.91802 3.375 10.125 3.375C10.332 3.375 10.5 3.20699 10.5 2.99999V1.50001C10.5 0.67275 9.82728 0 9.00001 0Z" fill="#4A4A4A"/>
<path d="M10.623 15.1853C10.5173 15.0068 10.2885 14.9483 10.1093 15.051C9.93001 15.156 9.87003 15.3862 9.97501 15.5647C10.0725 15.7305 10.1258 15.9292 10.1258 16.125C10.1258 16.7452 9.62102 17.25 9.00076 17.25C8.3805 17.25 7.87576 16.7452 7.87576 16.125C7.87576 15.9292 7.92902 15.7305 8.02651 15.5647C8.13075 15.3855 8.07077 15.156 7.89225 15.051C7.71151 14.9482 7.48349 15.0067 7.37851 15.1853C7.21275 15.4688 7.125 15.7935 7.125 16.125C7.12504 17.1592 7.96576 18 9.00002 18C10.0343 18 10.875 17.1592 10.8765 16.125C10.8765 15.7935 10.7888 15.4688 10.623 15.1853Z" fill="#4A4A4A"/>
</g>
<defs>
<clipPath id="clip0">
<rect width="18" height="18" fill="white"/>
</clipPath>
</defs>
</svg>
