<svg width="12" height="12" viewBox="0 0 12 12" fill="none" xmlns="http://www.w3.org/2000/svg">
<path d="M11.8957 11.388L8.97947 8.47184C9.76173 7.57251 10.2353 6.39911 10.2353 5.11663C10.2353 2.29357 7.93912 0 5.11872 0C2.29566 0 0.00209045 2.29623 0.00209045 5.11663C0.00209045 7.93703 2.29832 10.2333 5.11872 10.2333C6.4012 10.2333 7.57459 9.75965 8.47393 8.97738L11.3901 11.8936C11.4593 11.9627 11.5524 12 11.6429 12C11.7333 12 11.8265 11.9654 11.8957 11.8936C12.034 11.7552 12.034 11.5264 11.8957 11.388ZM0.717833 5.11663C0.717833 2.69002 2.69211 0.718404 5.11606 0.718404C7.54266 0.718404 9.51428 2.69268 9.51428 5.11663C9.51428 7.54058 7.54266 9.51752 5.11606 9.51752C2.69211 9.51752 0.717833 7.54324 0.717833 5.11663Z" fill="#B2B2B2"/>
</svg>
